<mxfile host="app.diagrams.net" modified="2023-03-04T18:02:16.039Z" agent="5.0 (Windows NT 10.0; Win64; x64) AppleWebKit/537.36 (KHTML, like Gecko) Chrome/110.0.0.0 Safari/537.36" etag="frydCtcQptnCMRgY44Hq" version="21.0.2" type="github">
  <diagram name="Page-1" id="y9iI2XiQNOOBf_MW6NYh">
    <mxGraphModel dx="1434" dy="796" grid="1" gridSize="10" guides="1" tooltips="1" connect="1" arrows="1" fold="1" page="1" pageScale="1" pageWidth="827" pageHeight="1169" math="0" shadow="0">
      <root>
        <mxCell id="0" />
        <mxCell id="1" parent="0" />
        <mxCell id="yCX_wMRBIf_Tw4EfQnRq-81" style="edgeStyle=orthogonalEdgeStyle;rounded=0;orthogonalLoop=1;jettySize=auto;html=1;exitX=0;exitY=0.5;exitDx=0;exitDy=0;entryX=0.5;entryY=1;entryDx=0;entryDy=0;" edge="1" parent="1" source="yCX_wMRBIf_Tw4EfQnRq-52" target="yCX_wMRBIf_Tw4EfQnRq-10">
          <mxGeometry relative="1" as="geometry">
            <mxPoint x="680" y="990" as="targetPoint" />
            <Array as="points">
              <mxPoint x="240" y="1030" />
              <mxPoint x="240" y="1125" />
              <mxPoint x="680" y="1125" />
            </Array>
          </mxGeometry>
        </mxCell>
        <mxCell id="yCX_wMRBIf_Tw4EfQnRq-78" style="edgeStyle=orthogonalEdgeStyle;rounded=0;orthogonalLoop=1;jettySize=auto;html=1;exitX=1;exitY=0.5;exitDx=0;exitDy=0;entryX=0.5;entryY=1;entryDx=0;entryDy=0;" edge="1" parent="1" source="yCX_wMRBIf_Tw4EfQnRq-49" target="yCX_wMRBIf_Tw4EfQnRq-10">
          <mxGeometry relative="1" as="geometry" />
        </mxCell>
        <mxCell id="yCX_wMRBIf_Tw4EfQnRq-77" style="edgeStyle=orthogonalEdgeStyle;rounded=0;orthogonalLoop=1;jettySize=auto;html=1;exitX=0;exitY=0.25;exitDx=0;exitDy=0;entryX=0.5;entryY=1;entryDx=0;entryDy=0;" edge="1" parent="1" source="yCX_wMRBIf_Tw4EfQnRq-45" target="yCX_wMRBIf_Tw4EfQnRq-6">
          <mxGeometry relative="1" as="geometry" />
        </mxCell>
        <mxCell id="yCX_wMRBIf_Tw4EfQnRq-76" style="edgeStyle=orthogonalEdgeStyle;rounded=0;orthogonalLoop=1;jettySize=auto;html=1;exitX=1;exitY=0.5;exitDx=0;exitDy=0;entryX=0.5;entryY=1;entryDx=0;entryDy=0;" edge="1" parent="1" source="yCX_wMRBIf_Tw4EfQnRq-72" target="yCX_wMRBIf_Tw4EfQnRq-10">
          <mxGeometry relative="1" as="geometry" />
        </mxCell>
        <mxCell id="yCX_wMRBIf_Tw4EfQnRq-74" style="edgeStyle=orthogonalEdgeStyle;rounded=0;orthogonalLoop=1;jettySize=auto;html=1;exitX=0.5;exitY=0;exitDx=0;exitDy=0;entryX=0.5;entryY=1;entryDx=0;entryDy=0;" edge="1" parent="1" source="yCX_wMRBIf_Tw4EfQnRq-72" target="yCX_wMRBIf_Tw4EfQnRq-9">
          <mxGeometry relative="1" as="geometry" />
        </mxCell>
        <mxCell id="yCX_wMRBIf_Tw4EfQnRq-2" value="Object-Oriented Systems Analysis and Design&lt;br&gt;(OOSAD)" style="ellipse;whiteSpace=wrap;html=1;" vertex="1" parent="1">
          <mxGeometry x="301" y="20" width="225" height="150" as="geometry" />
        </mxCell>
        <mxCell id="yCX_wMRBIf_Tw4EfQnRq-26" value="" style="edgeStyle=orthogonalEdgeStyle;rounded=0;orthogonalLoop=1;jettySize=auto;html=1;" edge="1" parent="1" source="yCX_wMRBIf_Tw4EfQnRq-4" target="yCX_wMRBIf_Tw4EfQnRq-2">
          <mxGeometry relative="1" as="geometry" />
        </mxCell>
        <mxCell id="yCX_wMRBIf_Tw4EfQnRq-4" value="&lt;b style=&quot;font-size: 13px;&quot;&gt;Three Basic&lt;br&gt;Properties of Modern Software&lt;br&gt;Development Processes&lt;/b&gt;" style="rounded=0;whiteSpace=wrap;html=1;" vertex="1" parent="1">
          <mxGeometry x="334" y="200" width="160" height="80" as="geometry" />
        </mxCell>
        <mxCell id="yCX_wMRBIf_Tw4EfQnRq-28" style="edgeStyle=orthogonalEdgeStyle;rounded=0;orthogonalLoop=1;jettySize=auto;html=1;entryX=0;entryY=1;entryDx=0;entryDy=0;" edge="1" parent="1" source="yCX_wMRBIf_Tw4EfQnRq-6" target="yCX_wMRBIf_Tw4EfQnRq-4">
          <mxGeometry relative="1" as="geometry" />
        </mxCell>
        <mxCell id="yCX_wMRBIf_Tw4EfQnRq-6" value="Use-Case Driven" style="swimlane;whiteSpace=wrap;html=1;startSize=40;" vertex="1" parent="1">
          <mxGeometry x="90" y="320" width="130" height="140" as="geometry" />
        </mxCell>
        <mxCell id="yCX_wMRBIf_Tw4EfQnRq-34" value="" style="shape=actor;whiteSpace=wrap;html=1;" vertex="1" parent="yCX_wMRBIf_Tw4EfQnRq-6">
          <mxGeometry x="40" y="50" width="50" height="70" as="geometry" />
        </mxCell>
        <mxCell id="yCX_wMRBIf_Tw4EfQnRq-33" style="edgeStyle=orthogonalEdgeStyle;rounded=0;orthogonalLoop=1;jettySize=auto;html=1;exitX=0.5;exitY=0;exitDx=0;exitDy=0;entryX=0.5;entryY=1;entryDx=0;entryDy=0;" edge="1" parent="1" source="yCX_wMRBIf_Tw4EfQnRq-9" target="yCX_wMRBIf_Tw4EfQnRq-4">
          <mxGeometry relative="1" as="geometry" />
        </mxCell>
        <mxCell id="yCX_wMRBIf_Tw4EfQnRq-9" value="Architecture-centric" style="swimlane;whiteSpace=wrap;html=1;startSize=40;" vertex="1" parent="1">
          <mxGeometry x="349" y="320" width="130" height="140" as="geometry" />
        </mxCell>
        <mxCell id="yCX_wMRBIf_Tw4EfQnRq-12" value="" style="whiteSpace=wrap;html=1;aspect=fixed;" vertex="1" parent="yCX_wMRBIf_Tw4EfQnRq-9">
          <mxGeometry x="42.5" y="75" width="45" height="45" as="geometry" />
        </mxCell>
        <mxCell id="yCX_wMRBIf_Tw4EfQnRq-13" value="" style="shape=loopLimit;whiteSpace=wrap;html=1;" vertex="1" parent="yCX_wMRBIf_Tw4EfQnRq-9">
          <mxGeometry x="40" y="45" width="50" height="30" as="geometry" />
        </mxCell>
        <mxCell id="yCX_wMRBIf_Tw4EfQnRq-14" value="" style="shape=waypoint;sketch=0;fillStyle=solid;size=6;pointerEvents=1;points=[];fillColor=none;resizable=0;rotatable=0;perimeter=centerPerimeter;snapToPoint=1;" vertex="1" parent="yCX_wMRBIf_Tw4EfQnRq-9">
          <mxGeometry x="55" y="87.5" width="20" height="20" as="geometry" />
        </mxCell>
        <mxCell id="yCX_wMRBIf_Tw4EfQnRq-32" style="edgeStyle=orthogonalEdgeStyle;rounded=0;orthogonalLoop=1;jettySize=auto;html=1;entryX=1;entryY=1;entryDx=0;entryDy=0;" edge="1" parent="1" source="yCX_wMRBIf_Tw4EfQnRq-10" target="yCX_wMRBIf_Tw4EfQnRq-4">
          <mxGeometry relative="1" as="geometry" />
        </mxCell>
        <mxCell id="yCX_wMRBIf_Tw4EfQnRq-10" value="Iterative and Incremental" style="swimlane;whiteSpace=wrap;html=1;startSize=40;" vertex="1" parent="1">
          <mxGeometry x="610" y="320" width="140" height="140" as="geometry" />
        </mxCell>
        <mxCell id="yCX_wMRBIf_Tw4EfQnRq-25" value="" style="sketch=0;html=1;aspect=fixed;strokeColor=none;shadow=0;fillColor=#000000;verticalAlign=top;labelPosition=center;verticalLabelPosition=bottom;shape=mxgraph.gcp2.arrow_cycle;strokeWidth=4;" vertex="1" parent="yCX_wMRBIf_Tw4EfQnRq-10">
          <mxGeometry x="30.53" y="45" width="78.95" height="75" as="geometry" />
        </mxCell>
        <mxCell id="yCX_wMRBIf_Tw4EfQnRq-36" value="" style="shape=ext;double=1;whiteSpace=wrap;html=1;aspect=fixed;" vertex="1" parent="1">
          <mxGeometry x="50" y="480" width="220" height="220" as="geometry" />
        </mxCell>
        <mxCell id="yCX_wMRBIf_Tw4EfQnRq-35" value="&lt;div style=&quot;&quot;&gt;&lt;span style=&quot;background-color: initial;&quot;&gt;When a system is use-case driven, use cases are the primary modeling tools defining the system&#39;s behavior. This form of modeling is very user-centric because it focuses on how someone interacts with a system. By deploying use-case-driven software, a systems analyst can determine and learn what a system is supposed to do for each user. Use-cases define the function of a system.&lt;/span&gt;&lt;/div&gt;" style="text;html=1;strokeColor=none;fillColor=none;align=center;verticalAlign=middle;whiteSpace=wrap;rounded=0;fontStyle=1" vertex="1" parent="1">
          <mxGeometry x="60" y="520" width="200" height="140" as="geometry" />
        </mxCell>
        <mxCell id="yCX_wMRBIf_Tw4EfQnRq-37" value="" style="shape=ext;double=1;whiteSpace=wrap;html=1;aspect=fixed;" vertex="1" parent="1">
          <mxGeometry x="306" y="480" width="220" height="220" as="geometry" />
        </mxCell>
        <mxCell id="yCX_wMRBIf_Tw4EfQnRq-38" value="&lt;div style=&quot;&quot;&gt;&lt;span style=&quot;background-color: initial;&quot;&gt;When a system is architecture-centric, the underlying software architecture of the evolving system specification drives the system&#39;s specification, construction, and documentation. Modern OOSAD approaches should support at least three separate views of the system: functional, static, and dynamic. Architecture defines the structure of a system.&lt;/span&gt;&lt;/div&gt;" style="text;html=1;strokeColor=none;fillColor=none;align=center;verticalAlign=middle;whiteSpace=wrap;rounded=0;fontStyle=1" vertex="1" parent="1">
          <mxGeometry x="316" y="520" width="200" height="140" as="geometry" />
        </mxCell>
        <mxCell id="yCX_wMRBIf_Tw4EfQnRq-39" value="" style="shape=ext;double=1;whiteSpace=wrap;html=1;aspect=fixed;" vertex="1" parent="1">
          <mxGeometry x="570" y="480" width="220" height="220" as="geometry" />
        </mxCell>
        <mxCell id="yCX_wMRBIf_Tw4EfQnRq-40" value="&lt;div style=&quot;&quot;&gt;&lt;span style=&quot;background-color: initial;&quot;&gt;When a system is iterative and incremental, it undergoes continuous testing and refinement throughout the projectâ€”a systems analyst builds up the three architectural views, studying and learning more about potential user problems each time. By evolving the architectural views, a systems analyst better understands the structural and behavioral and uncovers problems or misrepresentations in the functional view&lt;/span&gt;&lt;span style=&quot;background-color: initial;&quot;&gt;.&lt;/span&gt;&lt;/div&gt;" style="text;html=1;strokeColor=none;fillColor=none;align=center;verticalAlign=middle;whiteSpace=wrap;rounded=0;fontStyle=1" vertex="1" parent="1">
          <mxGeometry x="580" y="520" width="200" height="140" as="geometry" />
        </mxCell>
        <mxCell id="yCX_wMRBIf_Tw4EfQnRq-69" style="edgeStyle=orthogonalEdgeStyle;rounded=0;orthogonalLoop=1;jettySize=auto;html=1;exitX=1;exitY=0.5;exitDx=0;exitDy=0;entryX=0.936;entryY=-0.014;entryDx=0;entryDy=0;entryPerimeter=0;startArrow=classic;startFill=1;" edge="1" parent="1" source="yCX_wMRBIf_Tw4EfQnRq-45" target="yCX_wMRBIf_Tw4EfQnRq-49">
          <mxGeometry relative="1" as="geometry" />
        </mxCell>
        <mxCell id="yCX_wMRBIf_Tw4EfQnRq-45" value="Functional View" style="swimlane;whiteSpace=wrap;html=1;" vertex="1" parent="1">
          <mxGeometry x="340" y="790" width="140" height="140" as="geometry" />
        </mxCell>
        <mxCell id="yCX_wMRBIf_Tw4EfQnRq-48" value="The functional, or external, view describes the user and their perspective of the system.&amp;nbsp;" style="text;html=1;strokeColor=none;fillColor=none;align=center;verticalAlign=middle;whiteSpace=wrap;rounded=0;" vertex="1" parent="yCX_wMRBIf_Tw4EfQnRq-45">
          <mxGeometry x="10" y="30" width="120" height="100" as="geometry" />
        </mxCell>
        <mxCell id="yCX_wMRBIf_Tw4EfQnRq-49" value="Static View" style="swimlane;whiteSpace=wrap;html=1;" vertex="1" parent="1">
          <mxGeometry x="420" y="960" width="140" height="140" as="geometry" />
        </mxCell>
        <mxCell id="yCX_wMRBIf_Tw4EfQnRq-50" value="The static, or structural, view describes the system in terms of attributes, methods, classes, and relationships.&amp;nbsp;" style="text;html=1;strokeColor=none;fillColor=none;align=center;verticalAlign=middle;whiteSpace=wrap;rounded=0;" vertex="1" parent="yCX_wMRBIf_Tw4EfQnRq-49">
          <mxGeometry x="10" y="30" width="120" height="100" as="geometry" />
        </mxCell>
        <mxCell id="yCX_wMRBIf_Tw4EfQnRq-52" value="Dynamic View" style="swimlane;whiteSpace=wrap;html=1;" vertex="1" parent="1">
          <mxGeometry x="260" y="960" width="140" height="140" as="geometry" />
        </mxCell>
        <mxCell id="yCX_wMRBIf_Tw4EfQnRq-53" value="The dynamic, or behavioral, view describes how the system&#39;s objects communicate and relay information.&amp;nbsp;" style="text;html=1;strokeColor=none;fillColor=none;align=center;verticalAlign=middle;whiteSpace=wrap;rounded=0;" vertex="1" parent="yCX_wMRBIf_Tw4EfQnRq-52">
          <mxGeometry x="10" y="30" width="120" height="100" as="geometry" />
        </mxCell>
        <mxCell id="yCX_wMRBIf_Tw4EfQnRq-67" style="edgeStyle=orthogonalEdgeStyle;rounded=0;orthogonalLoop=1;jettySize=auto;html=1;entryX=0.107;entryY=0;entryDx=0;entryDy=0;entryPerimeter=0;strokeWidth=1;endArrow=classic;endFill=1;startArrow=classic;startFill=1;" edge="1" parent="1">
          <mxGeometry relative="1" as="geometry">
            <mxPoint x="335" y="860" as="sourcePoint" />
            <mxPoint x="265.98" y="960" as="targetPoint" />
            <Array as="points">
              <mxPoint x="266" y="860" />
            </Array>
          </mxGeometry>
        </mxCell>
        <mxCell id="yCX_wMRBIf_Tw4EfQnRq-71" style="edgeStyle=orthogonalEdgeStyle;rounded=0;orthogonalLoop=1;jettySize=auto;html=1;entryX=0.5;entryY=1;entryDx=0;entryDy=0;exitX=0.5;exitY=1;exitDx=0;exitDy=0;startArrow=classic;startFill=1;" edge="1" parent="1" source="yCX_wMRBIf_Tw4EfQnRq-52" target="yCX_wMRBIf_Tw4EfQnRq-49">
          <mxGeometry relative="1" as="geometry">
            <mxPoint x="305" y="1120" as="sourcePoint" />
          </mxGeometry>
        </mxCell>
        <mxCell id="yCX_wMRBIf_Tw4EfQnRq-72" value="&lt;b&gt;&lt;font style=&quot;font-size: 14px;&quot;&gt;Architectural Views&lt;/font&gt;&lt;/b&gt;" style="rounded=0;whiteSpace=wrap;html=1;" vertex="1" parent="1">
          <mxGeometry x="330" y="730" width="160" height="30" as="geometry" />
        </mxCell>
      </root>
    </mxGraphModel>
  </diagram>
</mxfile>
